#!OML:ASF H:\Dans Jumps\Project 1\Capture day 1\Session 1\subject.ASF
:FULLY-SPECIFIED
:DEGREES
218
root 0.288066 14.9427 -14.1833 16.8228 1.71212 -0.543854
lowerback 21.7095 0.338721 -0.744596
upperback 5.76982 0.444931 2.19372
thorax -5.84848 0.222087 2.67649
lowerneck -22.4004 -0.125209 -2.30103
upperneck 20.6592 0.77285 -0.62156
head 10.3058 0.089944 0.27461
rclavicle -1.98785e-015 3.97569e-015
rhumerus -30.1074 -10.8385 -72.4541
rradius 28.8927
rwrist 27.6428
rhand -22.6537 -24.0716
rfingers 7.12502
rthumb 3.77756 -54.0179
lclavicle -1.98785e-015 3.97569e-015
lhumerus -23.1451 -2.02609 80.6852
lradius 26.4477
lwrist 23.8254
lhand -29.9324 -11.4619
lfingers 7.12502
lthumb -3.25219 18.4931
rfemur -54.7613 -3.95792 20.1145
rtibia 74.6666
rfoot -31.1533 -18.9528
rtoes -5.57038
lfemur -54.466 3.50767 -20.6137
ltibia 73.2099
lfoot -28.1982 19.426
ltoes -10.3119
219
root 0.287328 15.0512 -14.0881 16.5236 1.69058 -0.547309
lowerback 21.2838 0.319602 -0.880804
upperback 5.67579 0.395094 2.24154
thorax -5.72841 0.19886 2.81672
lowerneck -22.1349 -0.0822994 -2.3087
upperneck 20.971 0.834656 -0.633663
head 10.37 0.113103 0.281169
rclavicle -3.57812e-015 3.18055e-015
rhumerus -27.4871 -9.79032 -73.4123
rradius 29.8073
rwrist 26.7288
rhand -23.2853 -24.2144
rfingers 7.12502
rthumb 3.16755 -54.1706
lclavicle -3.57812e-015 3.18055e-015
lhumerus -21.7457 -3.99323 81.2397
lradius 29.0901
lwrist 26.669
lhand -29.8305 -11.7096
lfingers 7.12502
lthumb -3.15381 18.2468
rfemur -53.2561 -3.97284 20.0905
rtibia 73.2899
rfoot -30.8659 -18.8882
rtoes -5.92346
lfemur -52.9673 3.55858 -20.5403
ltibia 71.8462
lfoot -27.9476 19.2553
ltoes -10.5404
220
root 0.28783 15.1718 -13.9883 16.1647 1.64735 -0.53596
lowerback 20.8438 0.307089 -1.00209
upperback 5.61372 0.356542 2.27946
thorax -5.56567 0.180054 2.93384
lowerneck -21.7883 -0.0307042 -2.28231
upperneck 21.2861 0.913346 -0.717795
head 10.4209 0.137973 0.258759
rclavicle -2.78299e-015 8.34896e-015
rhumerus -24.9243 -8.90009 -74.2255
rradius 30.5114
rwrist 26.3208
rhand -23.8359 -24.4151
rfingers 7.12502
rthumb 2.63588 -54.3786
lclavicle -2.78299e-015 8.34896e-015
lhumerus -20.2406 -5.76795 81.606
lradius 31.4321
lwrist 28.9126
lhand -29.5772 -11.9229
lfingers 7.12502
lthumb -2.90917 18.037
rfemur -51.5859 -3.99 20.039
rtibia 71.7489
rfoot -30.5199 -18.756
rtoes -6.20535
lfemur -51.2906 3.59865 -20.4813
ltibia 70.3135
lfoot -27.6192 19.0552
ltoes -10.6977
221
root 0.289425 15.3041 -13.8841 15.7443 1.58861 -0.510605
lowerback 20.3928 0.308122 -1.10106
upperback 5.58278 0.339878 2.30911
thorax -5.36379 0.170745 3.02301
lowerneck -21.3476 0.0140926 -2.25231
upperneck 21.5981 0.987655 -0.835021
head 10.4536 0.157477 0.222961
rclavicle 0 -1.98785e-015
rhumerus -22.4662 -8.15138 -74.9208
rradius 31.0689
rwrist 26.1954
rhand -24.246 -24.6133
rfingers 7.12502
rthumb 2.23973 -54.5813
lclavicle 0 -1.98785e-015
lhumerus -18.5864 -7.4043 81.8396
lradius 33.3523
lwrist 30.4029
lhand -29.3512 -12.1749
lfingers 7.12502
lthumb -2.69087 17.7879
rfemur -49.7548 -4.01524 19.9634
rtibia 70.0536
rfoot -30.1128 -18.5387
rtoes -6.38655
lfemur -49.4468 3.62571 -20.4355
ltibia 68.6228
lfoot -27.1641 18.8369
ltoes -10.8946
